<svg xmlns="http://www.w3.org/2000/svg" width="64" height="52" viewBox="0 0 64 52"><g fill="none" fill-rule="evenodd"><path fill="#a8a8ad" fill-rule="nonzero" d="M23 4h18v45H23V4zm10 38v7h6v-7h-6zm-8 0v7h6v-7h-6zm8-9v7h6v-7h-6zm-8 0v7h6v-7h-6zm8-9v7h6v-7h-6zm-8 0v7h6v-7h-6zm8-9v7h6v-7h-6zm-8 0v7h6v-7h-6zm8-9v7h6V6h-6zm-8 0v7h6V6h-6zm21 16h2v27.536h-2V22zm-5 0h5v2h-5v-2zm-25-9.002h2v36.538h-2V12.998zM18 13h5v2h-5v-2z"/><path stroke="#a8a8ad" stroke-width="2" d="M1 50h62" stroke-linecap="round"/><path stroke="#a8a8ad" stroke-width="2" d="M62.91 34.55c0 5.35-1.012 10-6.07 10s-6.07-4.63-6.07-10 2.983-9.68 6.07-9.68 6.07 4.33 6.07 9.68zm-6.06 1.53V49.2 36.08zm-43.94 3.244c0 3.495-1.777 5.226-3.965 5.226-2.189 0-3.966-1.718-3.966-5.226S6.756 33 8.945 33c2.188 0 3.965 2.829 3.965 6.324zm-4.06.675V49.2v-9.201z" stroke-linecap="round" stroke-linejoin="round"/><path fill="#a8a8ad" fill-rule="nonzero" d="M25 0h14v2H25z"/></g></svg>