<svg xmlns="http://www.w3.org/2000/svg" viewBox="0 0 82.9704 81.6054"><title>compass-rotate_1</title><path d="M43.063 66.543A24 24 0 1 0 18.975 42.63a24 24 0 0 0 24.088 23.912zm.004 1A25 25 0 1 1 67.975 42.45a25 25 0 0 1-24.908 25.092z" fill="#909090"/><circle cx="42.902" cy="22.543" r="1" transform="rotate(-.21 42.91 22.55)" fill="#909090"/><circle cx="43.049" cy="62.543" r="1" transform="rotate(-.21 43.055 62.556)" fill="#909090"/><circle cx="22.976" cy="42.616" r="1" transform="rotate(-.21 22.966 42.612)" fill="#909090"/><circle cx="62.975" cy="42.47" r="1" transform="rotate(-.21 62.972 42.467)" fill="#909090"/><path d="M43.3 32.542l7.424 17.223-7.404-2.973-7.318 3.027L43.3 32.542zM40.6 6.674l-.004-4.46 4.064 4.457.9-.001L45.555 0l-1.3.001.003 4.45L40.195.004l-.9.001.005 6.67 1.3-.001z"/><path fill="#909090" d="M82.97 38.695h-3.7v6.67h3.7v-1.12h-2.4v-1.82h2.3v-1.12h-2.3v-1.49h2.4v-1.12zM44.42 75.49a2.565 2.565 0 0 0-1.86-.846 1.94 1.94 0 0 0-2.208 1.885 1.552 1.552 0 0 0 .487 1.257 3.21 3.21 0 0 0 1.089.619 2.988 2.988 0 0 1 1.012.525.775.775 0 0 1 .239.609.935.935 0 0 1-1.062.883 1.564 1.564 0 0 1-1.368-.938l-.877.78a2.745 2.745 0 0 0 2.254 1.34 2.147 2.147 0 0 0 2.395-2.108 1.814 1.814 0 0 0-.521-1.42 3.88 3.88 0 0 0-1.326-.716 2.274 2.274 0 0 1-.786-.408.562.562 0 0 1-.194-.457c.012-.34.247-.772.946-.747a1.303 1.303 0 0 1 1.07.608zM4.831 39.917l1.462 4.23.98-.001 2.467-6.671-1.38.001-1.598 4.54-1.542-4.599-.72.001-1.628 4.6-1.492-4.539L0 37.48l2.323 6.669.98-.001 1.528-4.231z"/></svg>