<?xml version="1.0" encoding="utf-8"?>
<!-- Generator: Adobe Illustrator 22.1.0, SVG Export Plug-In . SVG Version: 6.00 Build 0)  -->
<svg version="1.1" id="Слой_1" xmlns="http://www.w3.org/2000/svg" xmlns:xlink="http://www.w3.org/1999/xlink" x="0px" y="0px"
	 viewBox="0 0 49.3 49.3" style="enable-background:new 0 0 49.3 49.3;" xml:space="preserve">
<style type="text/css">
	.st0{fill:#B30000;}
	.st1{fill:#FFFFFF;}
</style>
<title>filter</title>
<circle class="st0" cx="24.6" cy="24.6" r="24.1"/>
<path class="st1" d="M25,17.8v-4.9c0-0.4-0.3-0.6-0.6-0.6c-0.4,0-0.7,0.3-0.7,0.6v4.9c-1.6,0.4-2.6,1.9-2.2,3.5
	c0.3,1.1,1.1,1.9,2.2,2.2v12.1c0,0.4,0.3,0.7,0.7,0.7c0.4,0,0.6-0.3,0.6-0.7V23.5c1.6-0.4,2.6-1.9,2.2-3.5
	C27,18.9,26.1,18.1,25,17.8z M24.4,22.3c-0.9,0-1.6-0.7-1.6-1.6c0,0,0,0,0,0l0,0c0-0.9,0.7-1.6,1.6-1.6c0.9,0,1.6,0.7,1.6,1.6
	C26,21.5,25.3,22.3,24.4,22.3C24.4,22.3,24.4,22.3,24.4,22.3z M32.8,29.7v5.9c0,0.4,0.3,0.6,0.7,0.6c0.4,0,0.6-0.3,0.6-0.6v-5.9
	c1.6-0.4,2.6-1.9,2.2-3.5c-0.3-1.1-1.1-1.9-2.2-2.2V12.9c0-0.4-0.3-0.7-0.6-0.7c-0.4,0-0.7,0.3-0.7,0.6c0,0,0,0,0,0V24
	c-1.6,0.4-2.6,1.9-2.2,3.5C30.9,28.6,31.7,29.4,32.8,29.7z M33.5,25.3c0.9,0,1.6,0.7,1.6,1.6c0,0.9-0.7,1.6-1.6,1.6
	c-0.9,0-1.6-0.7-1.6-1.6l0,0C31.8,26,32.5,25.3,33.5,25.3C33.4,25.3,33.4,25.2,33.5,25.3z M15.9,35.6v-5.9c1.6-0.4,2.6-1.9,2.2-3.5
	c-0.3-1.1-1.1-1.9-2.2-2.2V12.9c0-0.4-0.3-0.6-0.6-0.6s-0.7,0.3-0.7,0.6V24c-1.6,0.4-2.6,1.9-2.2,3.5c0.3,1.1,1.1,1.9,2.2,2.2v5.9
	c0,0.4,0.3,0.7,0.7,0.7S15.9,36,15.9,35.6z M13.7,26.9c0-0.9,0.7-1.6,1.6-1.6c0.9,0,1.6,0.7,1.6,1.6s-0.7,1.6-1.6,1.6
	C14.4,28.5,13.7,27.8,13.7,26.9C13.7,26.9,13.7,26.9,13.7,26.9L13.7,26.9z"/>
</svg>
