<svg xmlns="http://www.w3.org/2000/svg" width="52" height="71" viewBox="0 0 52 71"><g fill="none" fill-rule="evenodd" stroke="#a8a8ad" transform="translate(1 1)" stroke-width="2"><path stroke-linecap="round" stroke-linejoin="round" d="M19.778 44.778l-8.445 21-7.889 3.111L0 61l1.556-3.667 4.777-2-2-4.889 4.778-2.111-2-4.889L9.333 38m31.111 2.444l8.889 20.889-3.444 7.556L38 66l-1.556-3.778 1.889-4.778-4.889-2.111 2-4.777-4.888-2.112-1.889-4.555"/><path d="M17.667 34.667c3.11 7.444 11.666 11 19.11 7.889 7.445-3.112 11-11.667 7.89-19.112-3-7.444-11.556-11-19.111-7.888-5.556 2.333-8.89 7.666-9 13.222-.112 2 .333 4 1.11 5.889z"/><circle cx="30.432" cy="24.552" r="3.889" transform="rotate(-22.5 30.432 24.552)"/><path d="M13.667 15.333c-.334-1.444-.556-2.889-.334-4.444C14.111 4.222 20.111-.667 26.778.11c6.666.78 11.555 6.78 10.778 13.446-.334 3.11-1.778 5.777-3.89 7.666-1.777 1.556-4 2.667-6.444 3" stroke-linecap="round"/><path d="M26.111 15.333a14.624 14.624 0 0 0-15.222 3.223c-1.445 1.333-2.556 3-3.333 4.888-3.112 7.445.444 16 7.888 19.112C19 44 22.778 44 26.111 42.778"/></g></svg>