<?xml version="1.0" encoding="utf-8"?>
<!-- Generator: Adobe Illustrator 22.1.0, SVG Export Plug-In . SVG Version: 6.00 Build 0)  -->
<svg version="1.1" id="Слой_1" xmlns="http://www.w3.org/2000/svg" xmlns:xlink="http://www.w3.org/1999/xlink" x="0px" y="0px"
	 viewBox="0 0 63.4 63.4" style="enable-background:new 0 0 63.4 63.4;" xml:space="preserve">
<style type="text/css">
	.st0{fill:#B30000;}
	.st1{fill:#FFFFFF;}
</style>
<circle class="st0" cx="31.7" cy="31.7" r="31.7"/>
<path class="st1" d="M46,48.1H16.2c-0.4,0-0.8-0.4-0.8-0.8l0,0V17.5c0-0.4,0.4-0.8,0.8-0.8l0,0h18.7c0.4,0,0.8,0.4,0.8,0.8l0,0
	c0,0.4-0.4,0.8-0.8,0.8l0,0H17v28.1h28.1V18.3h-4.7c-0.4,0-0.8-0.4-0.8-0.8l0,0c0-0.4,0.4-0.8,0.8-0.8l0,0h5.5
	c0.4,0,0.8,0.4,0.8,0.8l0,0v29.8C46.8,47.7,46.4,48.1,46,48.1L46,48.1z"/>
<path class="st1" d="M27.2,33.2h-11c-0.4,0-0.8-0.4-0.8-0.8l0,0c0-0.4,0.4-0.8,0.8-0.8l0,0h11.1c0.4,0,0.8,0.4,0.8,0.8l0,0
	C28,32.8,27.7,33.2,27.2,33.2L27.2,33.2z M46,29.3H32.6c-0.4,0-0.8-0.4-0.8-0.8l0,0c0-0.4,0.4-0.8,0.8-0.8l0,0H46
	c0.4,0,0.8,0.4,0.8,0.8l0,0C46.8,29,46.4,29.3,46,29.3L46,29.3z"/>
<path class="st1" d="M27.2,37.1c-0.4,0-0.8-0.4-0.8-0.8l0,0v-7.8c0-0.4,0.4-0.8,0.8-0.8l0,0c0.4,0,0.8,0.4,0.8,0.8l0,0v7.8
	C28,36.7,27.7,37.1,27.2,37.1L27.2,37.1z M27.2,22.8c-0.4,0-0.8-0.4-0.8-0.8l0,0v-4.5c0-0.4,0.4-0.8,0.8-0.8l0,0
	c0.4,0,0.8,0.4,0.8,0.8l0,0v4.6C28,22.5,27.7,22.8,27.2,22.8L27.2,22.8z M27.2,48.1c-0.4,0-0.8-0.4-0.8-0.8l0,0v-4.5
	c0-0.4,0.4-0.8,0.8-0.8l0,0c0.4,0,0.8,0.4,0.8,0.8l0,0v4.5C28,47.7,27.7,48.1,27.2,48.1L27.2,48.1z"/>
</svg>
