<svg width="30" height="30" viewBox="0 0 30 30" fill="none" xmlns="http://www.w3.org/2000/svg">
<circle cx="15" cy="15" r="15" fill="#DACEAD"/>
<path d="M16.7249 13.7543H14.0088V15.4357C11.4334 15.3085 9.69122 14.8318 8.63936 14.4216C7.79793 14.0934 7.27241 13.7637 7 13.5663V11.0702C7 10.576 7.40066 10.1755 7.89471 10.1755H10.3553V8.53506C10.3553 7.71278 11.0243 7.04388 11.8465 7.04388H19.1535C19.9757 7.04388 20.6447 7.71278 20.6447 8.53506V10.1753H23.1053C23.5994 10.1755 24 10.576 24 11.0702V13.5432C23.2947 14.008 21.0674 15.2169 16.7249 15.4342V13.7543ZM19.4517 8.53506C19.4517 8.37055 19.3179 8.23684 19.1535 8.23684H11.8465C11.6821 8.23684 11.5482 8.37055 11.5482 8.53506V10.1753H19.4517V8.53506Z" fill="black"/>
<path d="M23.1053 21.9561H7.89471C7.40052 21.9561 7 21.5555 7 21.0614V16.2894V14.8014C8.12 15.4354 10.3018 16.3077 14.0088 16.4814V16.9498C14.0088 17.6558 14.5811 18.228 15.287 18.228H15.4468C16.1528 18.228 16.7251 17.6558 16.7251 16.9498V16.48C20.5359 16.2992 22.8377 15.3908 24 14.7612V16.2894V21.0614C24 21.5556 23.5994 21.9561 23.1053 21.9561ZM8.04382 18.8246V20.9123H10.1315C10.1316 19.7583 9.19781 18.8246 8.04382 18.8246ZM22.9562 18.8246C21.8022 18.8246 20.8685 19.7584 20.8685 20.9123H22.9562V18.8246Z" fill="black"/>
</svg>
