<?xml version="1.0" encoding="UTF-8"?>
<svg width="164px" height="34px" viewBox="0 0 164 34" version="1.1" xmlns="http://www.w3.org/2000/svg" xmlns:xlink="http://www.w3.org/1999/xlink">
    <!-- Generator: Sketch 47.1 (45422) - http://www.bohemiancoding.com/sketch -->
    <title>logo_white_and_red_short</title>
    <desc>Created with Sketch.</desc>
    <defs></defs>
    <g id="Page-1" stroke="none" stroke-width="1" fill="none" fill-rule="evenodd">
        <g id="logo_white_and_red_short" fill-rule="nonzero">
            <path d="M10.1,24 C10.1,24 4.1,22.9 1.6,26.7 C-0.9,30.5 3.4,33.5 9.2,32.1 C12.9,31.2 22.7,26.9 29.3,13 C32.7,5.8 35.6,5.4 39.1,5.4 C42.6,5.4 35.9,2 30.5,6.1 C25,10.2 21.3,15.7 16.8,22.9 C12.8,29.4 5.9,30 6.4,27.7 C7,24.6 11.5,24.7 10.1,24 Z" id="Shape" fill="#FFFFFF"></path>
            <path d="M25.4,17.7 C25.4,17.7 31.6,17.9 34.3,14.1 C38.4,8.3 27,3.9 18.6,7.6 C9.1,11.8 7.9,20.2 12.2,20.4 C16.5,20.7 19.4,15.9 18.8,13 C18.3,10.7 19.8,12.5 19.7,14.9 C19.5,17.9 14.8,25.3 9.1,21.3 C2.4,16.6 12.5,6.3 21.1,4.5 C35,1.5 42.9,10 40.4,14.3 C36,22 23.6,19.2 23.6,19.2 L25.4,17.7 Z" id="Shape" fill="#FFFFFF"></path>
            <path d="M23.8,19.4 C23.8,19.4 34.4,17.4 32.9,22.5 C31.3,27.6 29.1,29.9 31.7,30 C35.5,30.3 37,27.2 37.3,28.6 C37.6,30.1 34.4,33.8 29.5,32.7 C24.5,31.6 24.9,28.5 26.9,25.5 C28.7,22.8 30.9,20.2 27.2,20 C23.5,20 23.8,19.4 23.8,19.4 Z M18.4,13.9 C18.4,13.9 18.5,12.7 17.8,12 C17.1,11.3 15.9,11 15.9,11 C15.9,11 15.8,12.8 16.8,13.5 C17.6,14.1 18.4,13.9 18.4,13.9 Z M42.7,24.9 C42.9,24.8 48.6,23.7 50.6,20.9 C52,19.1 50.4,18.1 47.8,19.4 C45.3,20.6 41.1,25.5 43,28.4 C44.8,31.2 50.5,29.8 54.6,26.3 C58.6,22.8 60.9,20 60.9,20 L61.5,20.4 C61.5,20.4 54.1,30.8 46.8,32 C39.4,33.2 38.4,28.3 39,25.6 C39.9,22 44.6,16.6 50.2,16.9 C55.8,17.2 57.1,21.6 51.3,23.9 C45.7,26 41.8,26 41.8,26 L42.7,24.9 Z M133,24.9 C133.2,24.8 138.9,23.7 140.9,20.9 C142.3,19.1 140.7,18.1 138.1,19.4 C135.6,20.6 131.4,25.5 133.3,28.4 C135.1,31.2 140.8,29.8 144.9,26.3 C148.9,22.8 151.7,18.7 151.2,20 C150.5,22.1 145.1,30.7 137.1,32 C129.7,33.2 128.7,28.3 129.3,25.6 C130.2,22 134.9,16.6 140.5,16.9 C146.1,17.2 147.4,21.6 141.6,23.9 C136.1,26.1 132.2,26.1 132.2,26.1 L133,24.9 Z M82.9,4.7 C82.9,4.7 78.2,2.9 75.4,8.7 C72.2,15.5 67.3,23 66.1,25.9 C65,28.7 65.7,32.7 68.9,32.1 C73.6,31.2 75.3,28.5 76.8,26.3 C77.5,25.4 80.2,19.5 75.1,25.8 C74.4,26.7 70.1,30.5 69.2,28.5 C68.3,26.5 76,15.4 78.6,12 C80.8,9.3 82.9,4.7 82.9,4.7 Z" id="Shape" fill="#FFFFFF"></path>
            <path d="M152.5,20.3 C152.5,20.3 153.5,18.2 156.1,17.3 C159.3,16.2 163.1,19.5 163.1,19.5 C163.1,19.5 160.6,21.7 157.8,22.1 C155,22.5 152.5,20.3 152.5,20.3 Z M152.1,17.5 C152.1,17.5 150.7,14.6 151.8,10.8 C153.3,6.2 160.4,4.8 160.4,4.8 C160.4,4.8 160.6,9.5 158.7,13 C156.8,16.6 152.1,17.5 152.1,17.5 Z" id="Combined-Shape" fill="#B01117"></path>
            <path d="M137.2,6.1 C137.2,6.1 132.5,4.3 129.7,10.1 C126.5,16.9 121.6,24.4 120.4,27.3 C119.3,30.1 120,34.1 123.2,33.5 C127.9,32.6 129.6,29.9 131.1,27.7 C131.8,26.8 134.5,20.9 129.4,27.2 C128.7,28.1 124.4,31.9 123.5,29.9 C122.6,27.9 130.3,16.8 132.9,13.4 C135.1,10.7 137.2,6.1 137.2,6.1 Z M69.1,24.5 C69.1,24.5 63.2,35.3 56.9,31.2 C52.3,28.2 55.9,21.9 60.7,19.1 C65.5,16.3 70.1,17 70.1,20.5 C70.1,24 68.4,23.9 68.4,23.9 C68.4,23.9 70.8,19 66.4,19.2 C62,19.4 56.3,25.7 59.2,28 C62.4,30.5 68.3,25.1 69.1,24.5 Z" id="Shape" fill="#FFFFFF"></path>
            <path d="M124.1,24.5 C124.1,24.5 118.2,35.3 111.9,31.2 C107.3,28.2 110.9,21.9 115.7,19.1 C120.5,16.3 125.1,17 125.1,20.5 C125.1,24 123.4,23.9 123.4,23.9 C123.4,23.9 125.8,19 121.4,19.2 C117,19.4 111.3,25.7 114.2,28 C117.4,30.5 123.3,25.1 124.1,24.5 Z M76.9,22.1 C74.6,26.4 78.9,31.5 85.5,32.1 C90.8,32.6 97.8,28 98.1,19.9 C98.5,12 98.9,5 103.3,4.1 C108.8,3.1 107.3,8.2 105.6,10 C103.9,11.7 107.8,11.7 110.2,9.2 C112.6,6.7 112.7,0.2 104.1,0.7 C94.6,1.2 92.5,9.1 92.1,18 C91.7,25.9 87.7,29.1 82.9,27.9 C78.8,26.9 78.7,22.4 82.6,23.2 C87.4,24.3 80.5,15.2 76.9,22.1 Z" id="Shape" fill="#FFFFFF"></path>
            <path d="M104,18.1 C104,18.1 96.4,28.3 99.4,30.9 C100.8,32.2 105.3,32.7 108.2,29.4 C111.1,26.1 113.2,22.1 113.2,22.1 L112.7,22.1 C112.7,22.1 106.3,31.5 103.9,28.9 C102,26.8 109.9,19.4 109.2,17.7 C108.6,16.4 105.8,16.8 104,18.1 Z M108.3,16 C108.1,15.9 106.7,14.5 108.8,12.8 C110.9,11.2 114.2,10.7 114.2,10.7 C114.2,10.7 114.6,14.2 112.4,15.5 C109.9,17.1 108.3,16 108.3,16 Z" id="Shape" fill="#FFFFFF"></path>
        </g>
    </g>
</svg>